<svg xmlns="http://www.w3.org/2000/svg" width="32" height="32" fill="currentColor" viewBox="0 0 32 32">
  <path d="M31.068 5.688h-8.506V4.75a2.816 2.816 0 00-2.812-2.813h-7.5A2.816 2.816 0 009.437 4.75v.938h-8.5A.94.94 0 000 6.625V27.25a2.816 2.816 0 002.813 2.813h26.375A2.816 2.816 0 0032 27.25V6.645 6.64c-.036-.616-.415-.95-.932-.953zM11.312 4.75c0-.517.421-.938.938-.938h7.5c.517 0 .938.421.938.938v.938h-9.375V4.75zm18.45 2.813l-2.912 8.733a.936.936 0 01-.889.642h-5.273V16a.937.937 0 00-.938-.938h-7.5a.937.937 0 00-.938.938v.938H6.04a.936.936 0 01-.89-.642L2.24 7.563h27.523zm-10.95 9.375v1.875h-5.625v-1.875h5.626zM30.126 27.25c0 .517-.42.938-.938.938H2.813a.939.939 0 01-.937-.938V12.402l1.496 4.487a2.808 2.808 0 002.668 1.924h5.274v.937c0 .518.42.938.937.938h7.5c.518 0 .938-.42.938-.938v-.938h5.273a2.809 2.809 0 002.668-1.923l1.496-4.487V27.25z"/>
</svg>
